<svg xmlns="http://www.w3.org/2000/svg" xmlns:xlink="http://www.w3.org/1999/xlink" viewBox="0 0 641 738" width="641" height="738" preserveAspectRatio="xMidYMid meet" style="width: 100%; height: 100%; transform: translate3d(0px, 0px, 0px); content-visibility: visible;"><defs><clipPath id="__lottie_element_536"><rect width="641" height="738" x="0" y="0"></rect></clipPath><clipPath id="__lottie_element_538"><path d="M0,0 L786,0 L786,600 L0,600z"></path></clipPath><clipPath id="__lottie_element_542"><path d="M0,0 L600,0 L600,600 L0,600z"></path></clipPath><clipPath id="__lottie_element_882"><path d="M0,0 L786,0 L786,600 L0,600z"></path></clipPath><clipPath id="__lottie_element_886"><path d="M0,0 L600,0 L600,600 L0,600z"></path></clipPath></defs><g clip-path="url(#__lottie_element_536)"><g clip-path="url(#__lottie_element_882)" transform="matrix(-1,0,0,1,713.5,69)" opacity="1" style="display: block;"><g clip-path="url(#__lottie_element_886)" transform="matrix(0.8326092958450317,-0.22740226984024048,0.5471091270446777,0.4796223044395447,-148.03652954101562,346.20098876953125)" opacity="1" style="display: block;"><g transform="matrix(1,0,0,1,216.12301635742188,148.84600830078125)" opacity="1" style="display: block;"><g opacity="1" transform="matrix(1,0,0,1,66.71099853515625,84.46900177001953)"><path fill="rgb(216,207,185)" fill-opacity="1" d=" M22.733999252319336,-84.21900177001953 C22.733999252319336,-84.21900177001953 -20.523000717163086,-84.21900177001953 -20.523000717163086,-84.21900177001953 C-45.893001556396484,-84.21900177001953 -66.45999908447266,-63.652000427246094 -66.45999908447266,-38.28200149536133 C-66.45999908447266,-38.28200149536133 -66.45999908447266,70.33000183105469 -66.45999908447266,70.33000183105469 C-66.45999908447266,78.0009994506836 -60.242000579833984,84.21900177001953 -52.57099914550781,84.21900177001953 C-52.57099914550781,84.21900177001953 22.733999252319336,84.21900177001953 22.733999252319336,84.21900177001953 C46.87900161743164,84.21900177001953 66.45999908447266,61.5099983215332 66.45999908447266,33.49100112915039 C66.45999908447266,33.49100112915039 66.45999908447266,-33.49100112915039 66.45999908447266,-33.49100112915039 C66.45999908447266,-61.5099983215332 46.87900161743164,-84.21900177001953 22.733999252319336,-84.21900177001953z"></path></g></g><g transform="matrix(0.9902680516242981,0.13917310535907745,-0.13917310535907745,0.9902680516242981,224.59381103515625,52.17597961425781)" opacity="1" style="display: block;"><g opacity="1" transform="matrix(1,0,0,1,8.309000015258789,156.94000244140625)"><path fill="rgb(216,207,185)" fill-opacity="1" d=" M7.309000015258789,155.94000244140625 C7.309000015258789,155.94000244140625 7.309000015258789,155.94000244140625 7.309000015258789,155.94000244140625z M-224.11399841308594,-217.93600463867188 C-224.11399841308594,-217.93600463867188 375.885986328125,-217.93600463867188 375.885986328125,-217.93600463867188 C375.885986328125,-217.93600463867188 375.885986328125,382.0639953613281 375.885986328125,382.0639953613281 C375.885986328125,382.0639953613281 -224.11399841308594,382.0639953613281 -224.11399841308594,382.0639953613281 C-224.11399841308594,382.0639953613281 -224.11399841308594,-217.93600463867188 -224.11399841308594,-217.93600463867188z M-224.11399841308594,382.0639953613281 C-224.11399841308594,382.0639953613281 375.885986328125,382.0639953613281 375.885986328125,382.0639953613281 C375.885986328125,382.0639953613281 375.885986328125,-217.93600463867188 375.885986328125,-217.93600463867188 C375.885986328125,-217.93600463867188 -224.11399841308594,-217.93600463867188 -224.11399841308594,-217.93600463867188 C-224.11399841308594,-217.93600463867188 -224.11399841308594,382.0639953613281 -224.11399841308594,382.0639953613281z"></path><g opacity="1" transform="matrix(1,0,0,1,0,0)"></g></g><g opacity="1" transform="matrix(1,0,0,1,69.40299987792969,48.5620002746582)"><path fill="rgb(216,207,185)" fill-opacity="1" d=" M31.798999786376953,2.0429999828338623 C30.358999252319336,1.5140000581741333 28.841999053955078,1.0870000123977661 27.440000534057617,0.6119999885559082 C27.69099998474121,-5.730999946594238 25.9060001373291,-12.199999809265137 21.900999069213867,-17.7450008392334 C19.30900001525879,-21.33099937438965 16.05699920654297,-24.160999298095703 12.4350004196167,-26.18600082397461 C8.645000457763672,-28.30699920654297 4.440999984741211,-29.547000885009766 0.1589999943971634,-29.85300064086914 C-6.484000205993652,-30.33300018310547 -13.317999839782715,-28.569000244140625 -19.14299964904785,-24.360000610351562 C-32.30500030517578,-14.852999687194824 -35.26900100708008,3.5239999294281006 -25.756999969482422,16.68400001525879 C-24.106000900268555,18.97100067138672 -22.187000274658203,20.95199966430664 -20.073999404907227,22.60300064086914 C-17.695999145507812,24.47100067138672 -15.076000213623047,25.93600082397461 -12.312000274658203,26.972999572753906 C-3.3959999084472656,30.332000732421875 6.98199987411499,29.29400062561035 15.28600025177002,23.29800033569336 C21.18600082397461,19.035999298095703 25.02899932861328,12.991000175476074 26.625,6.434000015258789 C27.753999710083008,6.84499979019165 28.895999908447266,7.256999969482422 30,7.572000026702881 C33.55400085449219,8.586999893188477 35.268001556396484,3.316999912261963 31.798999786376953,2.0429999828338623z"></path></g><g opacity="1" transform="matrix(1,0,0,1,58.41999816894531,46.882999420166016)"><path fill="rgb(216,207,185)" fill-opacity="1" d=" M16.461000442504883,-0.1459999978542328 C14.946000099182129,-1.7230000495910645 12.991999626159668,-2.9170000553131104 10.717000007629395,-3.502000093460083 C4.196000099182129,-5.185999870300293 -2.4549999237060547,-1.2610000371932983 -4.138999938964844,5.260000228881836 C-5.659999847412109,11.140000343322754 -2.61899995803833,17.125999450683594 2.7760000228881836,19.479999542236328 C1.9539999961853027,22.172000885009766 0.5120000243186951,25.44300079345703 -1.3289999961853027,28.652999877929688 C-4.093999862670898,27.617000579833984 -6.7129998207092285,26.152000427246094 -9.09000015258789,24.283000946044922 C-11.201000213623047,22.632999420166016 -13.121999740600586,20.649999618530273 -14.772000312805176,18.36400032043457 C-24.283000946044922,5.203000068664551 -21.320999145507812,-13.17300033569336 -8.15999984741211,-22.679000854492188 C-2.3320000171661377,-26.891000747680664 4.5,-28.652999877929688 11.145000457763672,-28.173999786376953 C15.425000190734863,-27.864999771118164 19.625999450683594,-26.62700080871582 23.416000366210938,-24.509000778198242 C24.283000946044922,-17.993999481201172 21.231000900268555,-7.552000045776367 16.461000442504883,-0.1459999978542328z"></path></g><g opacity="1" transform="matrix(1,0,0,1,90.76300048828125,43.74100112915039)"><path fill="rgb(216,207,185)" fill-opacity="1" d=" M2.4579999446868896,0.6340000033378601 C2.1080000400543213,1.9910000562667847 0.722000002861023,2.806999921798706 -0.6349999904632568,2.4570000171661377 C-1.9919999837875366,2.1059999465942383 -2.806999921798706,0.722000002861023 -2.4560000896453857,-0.6349999904632568 C-2.1059999465942383,-1.9919999837875366 -0.722000002861023,-2.808000087738037 0.6349999904632568,-2.4579999446868896 C1.9919999837875366,-2.1070001125335693 2.808000087738037,-0.7229999899864197 2.4579999446868896,0.6340000033378601z"></path></g><g opacity="1" transform="matrix(1,0,0,1,65.8759994506836,55.189998626708984)"><path fill="rgb(216,207,185)" fill-opacity="1" d=" M12.017999649047852,3.046999931335449 C10.333999633789062,9.567999839782715 3.683000087738037,13.494000434875488 -2.8380000591278076,11.8100004196167 C-3.4800000190734863,11.645999908447266 -4.093999862670898,11.432000160217285 -4.679999828338623,11.17300033569336 C-10.074999809265137,8.819000244140625 -13.116000175476074,2.8329999446868896 -11.595000267028809,-3.0460000038146973 C-9.91100025177002,-9.567999839782715 -3.259999990463257,-13.493000030517578 3.260999917984009,-11.809000015258789 C5.535999774932861,-11.222999572753906 7.489999771118164,-10.029999732971191 9.005000114440918,-8.45300006866455 C11.831999778747559,-5.501999855041504 13.116000175476074,-1.1990000009536743 12.017999649047852,3.046999931335449z"></path></g><g opacity="1" transform="matrix(1,0,0,1,25.444000244140625,33.0880012512207)"><path fill="rgb(216,207,185)" fill-opacity="1" d=" M24.823999404907227,11.121999740600586 C24.81999969482422,10.814000129699707 24.78499984741211,10.515000343322754 24.735000610351562,10.220999717712402 C24.839000701904297,9.609999656677246 24.844999313354492,9 24.756000518798828,8.409000396728516 C24.832000732421875,7.901000022888184 24.8439998626709,7.38700008392334 24.78499984741211,6.880000114440918 C24.926000595092773,5.623000144958496 24.658000946044922,4.313000202178955 23.93000030517578,3.1600000858306885 C23.93000030517578,3.1600000858306885 3.4000000953674316,-29.339000701904297 3.4000000953674316,-29.339000701904297 C1.6970000267028809,-32.034000396728516 -1.8680000305175781,-32.8380012512207 -4.561999797821045,-31.13599967956543 C-7.256999969482422,-29.433000564575195 -8.062000274658203,-25.868999481201172 -6.359000205993652,-23.173999786376953 C-6.359000205993652,-23.173999786376953 -2.1649999618530273,-16.534000396728516 -2.1649999618530273,-16.534000396728516 C-2.1649999618530273,-16.534000396728516 -7.559000015258789,-20.788999557495117 -7.559000015258789,-20.788999557495117 C-10.062000274658203,-22.76300048828125 -13.690999984741211,-22.333999633789062 -15.664999961853027,-19.83099937438965 C-17.638999938964844,-17.327999114990234 -17.208999633789062,-13.697999954223633 -14.706000328063965,-11.723999977111816 C-14.706000328063965,-11.723999977111816 -7.131999969482422,-5.75 -7.131999969482422,-5.75 C-7.131999969482422,-5.75 -15.479999542236328,-8.593000411987305 -15.479999542236328,-8.593000411987305 C-18.496999740600586,-9.621000289916992 -21.774999618530273,-8.008000373840332 -22.80299949645996,-4.989999771118164 C-23.829999923706055,-1.9730000495910645 -22.218000411987305,1.3070000410079956 -19.201000213623047,2.3350000381469727 C-19.201000213623047,2.3350000381469727 -9.204000473022461,5.736999988555908 -9.204000473022461,5.736999988555908 C-9.204000473022461,5.736999988555908 -19.45400047302246,5.854000091552734 -19.45400047302246,5.854000091552734 C-22.641000747680664,5.889999866485596 -25.194000244140625,8.503000259399414 -25.158000946044922,11.690999984741211 C-25.121999740600586,14.878000259399414 -22.510000228881836,17.433000564575195 -19.32200050354004,17.395999908447266 C-19.32200050354004,17.395999908447266 -9.138999938964844,17.2810001373291 -9.138999938964844,17.2810001373291 C-9.138999938964844,17.2810001373291 -19.033000946044922,20.90399932861328 -19.033000946044922,20.90399932861328 C-22.025999069213867,22 -23.56399917602539,25.31399917602539 -22.468000411987305,28.30699920654297 C-21.371999740600586,31.299999237060547 -18.05699920654297,32.8380012512207 -15.064000129699707,31.742000579833984 C-15.064000129699707,31.742000579833984 21.03499984741211,18.525999069213867 21.03499984741211,18.525999069213867 C23.68899917602539,17.554000854492188 25.19499969482422,14.84000015258789 24.73900032043457,12.149999618530273 C24.795000076293945,11.815999984741211 24.827999114990234,11.472999572753906 24.823999404907227,11.121999740600586z"></path></g><g opacity="1" transform="matrix(1,0,0,1,41.816001892089844,40.95899963378906)"><path fill="rgb(216,207,185)" fill-opacity="1" d=" M-3.49399995803833,17.322999954223633 C-4.7789998054504395,17.322999954223633 -6.013999938964844,16.60700035095215 -6.616000175476074,15.37399959564209 C-9.40999984741211,9.659000396728516 -9.8100004196167,3.197000026702881 -7.74399995803833,-2.819999933242798 C-5.677999973297119,-8.836999893188477 -1.3919999599456787,-13.689000129699707 4.323999881744385,-16.48200035095215 C6.046000003814697,-17.322999954223633 8.12600040435791,-16.611000061035156 8.968000411987305,-14.88700008392334 C9.8100004196167,-13.163999557495117 9.095999717712402,-11.085000038146973 7.373000144958496,-10.243000030517578 C3.3239998817443848,-8.263999938964844 0.2879999876022339,-4.827000141143799 -1.1759999990463257,-0.5640000104904175 C-2.640000104904175,3.697999954223633 -2.3559999465942383,8.276000022888184 -0.37700000405311584,12.324999809265137 C0.4650000035762787,14.04800033569336 -0.24899999797344208,16.12700080871582 -1.972000002861023,16.9689998626709 C-2.4619998931884766,17.208999633789062 -2.9820001125335693,17.322999954223633 -3.49399995803833,17.322999954223633z"></path></g><g opacity="1" transform="matrix(1,0,0,1,61.0890007019043,65.59600067138672)"><path stroke-linecap="round" stroke-linejoin="round" fill-opacity="0" stroke="rgb(216,207,185)" stroke-opacity="1" stroke-width="6.451" d=" M5.986000061035156,0 C5.986000061035156,3.305999994277954 3.305999994277954,5.986000061035156 0,5.986000061035156 C-3.305999994277954,5.986000061035156 -5.986000061035156,3.305999994277954 -5.986000061035156,0 C-5.986000061035156,-3.305999994277954 -3.305999994277954,-5.986000061035156 0,-5.986000061035156 C3.305999994277954,-5.986000061035156 5.986000061035156,-3.305999994277954 5.986000061035156,0z"></path></g></g><g transform="matrix(1,0,0,1,435.0260009765625,152.68499755859375)" opacity="1" style="display: block;"><g opacity="1" transform="matrix(1,0,0,1,15.385000228881836,25.10300064086914)"><path fill="rgb(216,207,185)" fill-opacity="1" d=" M-10.336999893188477,23.39299964904785 C-10.336999893188477,23.39299964904785 -10.336999893188477,23.39299964904785 -10.336999893188477,23.39299964904785 C-13.640999794006348,21.933000564575195 -15.13599967956543,18.07200050354004 -13.675999641418457,14.767999649047852 C-13.675999641418457,14.767999649047852 1.7120000123977661,-20.054000854492188 1.7120000123977661,-20.054000854492188 C3.171999931335449,-23.357999801635742 7.033999919891357,-24.85300064086914 10.336999893188477,-23.39299964904785 C13.640999794006348,-21.933000564575195 15.13599967956543,-18.070999145507812 13.675999641418457,-14.767999649047852 C13.675999641418457,-14.767999649047852 -1.7120000123977661,20.05500030517578 -1.7120000123977661,20.05500030517578 C-3.171999931335449,23.357999801635742 -7.0329999923706055,24.85300064086914 -10.336999893188477,23.39299964904785z"></path></g></g><g transform="matrix(1,0,0,1,410.9410095214844,172.06500244140625)" opacity="1" style="display: block;"><g opacity="1" transform="matrix(1,0,0,1,24.284000396728516,20.06599998474121)"><path fill="rgb(216,207,185)" fill-opacity="1" d=" M23.687999725341797,-7.140999794006348 C23.31800079345703,-10.371000289916992 19.46299934387207,-9.406000137329102 17.58300018310547,-9.053000450134277 C16.18000030517578,-8.789999961853027 12.1899995803833,-8.020999908447266 9.04699993133545,-9.083000183105469 C7.48799991607666,-9.609999656677246 7.482999801635742,-11.798999786376953 9.026000022888184,-12.371999740600586 C9.104000091552734,-12.401000022888184 11.444000244140625,-12.79699993133545 11.864999771118164,-12.888999938964844 C14.057000160217285,-13.366000175476074 12.376999855041504,-15.991999626159668 10.378999710083008,-17.01099967956543 C4.885000228881836,-19.815000534057617 -5.216000080108643,-17.344999313354492 -7.718999862670898,-14.019000053405762 C-11.128999710083008,-9.48799991607666 -14.128000259399414,-3.118000030517578 -18.982999801635742,-1.3009999990463257 C-20.69499969482422,-0.6610000133514404 -22.363000869750977,0.03400000184774399 -24.034000396728516,0.6439999938011169 C-24.034000396728516,0.6439999938011169 -16.07900047302246,19.81599998474121 -16.07900047302246,19.81599998474121 C-12.524999618530273,17.777999877929688 -10.61299991607666,15.480999946594238 -6.703999996185303,15.109000205993652 C-2.0360000133514404,14.666000366210938 2.742000102996826,14.795999526977539 7.429999828338623,14.812999725341797 C11.26099967956543,14.826000213623047 12.890999794006348,14.138999938964844 12.960000038146973,8.79800033569336 C16.408000946044922,9.125 18.47800064086914,6.480000019073486 17.534000396728516,2.1440000534057617 C19.732999801635742,2.2139999866485596 21.67099952697754,-1.3639999628067017 19.874000549316406,-3.6710000038146973 C21.739999771118164,-3.3580000400543213 24.034000396728516,-4.125 23.687999725341797,-7.140999794006348z"></path></g></g><g transform="matrix(1,0,0,1,262,313)" opacity="0.8" style="display: block;"><g opacity="1" transform="matrix(1,0,0,1,0,0)"><path fill="rgb(216,207,185)" fill-opacity="0" d=" M11.5,-134.5 C11.5,-134.5 34.9119987487793,-89.9280014038086 59.5,-79 C104.5,-59 135,-96 150,-109"></path><path stroke-linecap="round" stroke-linejoin="miter" fill-opacity="0" stroke-miterlimit="4" stroke="rgb(216,207,185)" stroke-opacity="1" stroke-width="35" d=" M11.5,-134.5 C11.5,-134.5 34.9119987487793,-89.9280014038086 59.5,-79 C104.5,-59 135,-96 150,-109"></path></g></g><g transform="matrix(1,0,0,1,253,405)" opacity="0.8" style="display: block;"><g opacity="1" transform="matrix(1,0,0,1,0,0)"><path fill="rgb(216,207,185)" fill-opacity="0" d=" M15,-126 C15,-126 57,-54 59.5,-21 C64.34700012207031,42.974998474121094 59.5,82.75 59.5,110.75"></path><path stroke-linecap="round" stroke-linejoin="miter" fill-opacity="0" stroke-miterlimit="4" stroke="rgb(216,207,185)" stroke-opacity="1" stroke-width="40" d=" M15,-126 C15,-126 57,-54 59.5,-21 C64.34700012207031,42.974998474121094 59.5,82.75 59.5,110.75"></path></g></g><g transform="matrix(1,0,0,1,253,405)" opacity="0.8" style="display: block;"><g opacity="1" transform="matrix(1,0,0,1,0,0)"><path fill="rgb(216,207,185)" fill-opacity="0" d=" M14.5,-126.5 C14.5,-126.5 20,-42 20.5,-25 C21.667999267578125,14.696999549865723 16.5,24.375 4.5,54.375"></path><path stroke-linecap="round" stroke-linejoin="miter" fill-opacity="0" stroke-miterlimit="4" stroke="rgb(216,207,185)" stroke-opacity="1" stroke-width="40" d=" M14.5,-126.5 C14.5,-126.5 20,-42 20.5,-25 C21.667999267578125,14.696999549865723 16.5,24.375 4.5,54.375"></path></g></g></g><g transform="matrix(1,0,0,1,309.1230163574219,148.84600830078125)" opacity="1" style="display: block;"><g opacity="1" transform="matrix(1,0,0,1,66.71099853515625,84.46900177001953)"><path fill="rgb(255,66,156)" fill-opacity="1" d=" M22.733999252319336,-84.21900177001953 C22.733999252319336,-84.21900177001953 -20.523000717163086,-84.21900177001953 -20.523000717163086,-84.21900177001953 C-45.893001556396484,-84.21900177001953 -66.45999908447266,-63.652000427246094 -66.45999908447266,-38.28200149536133 C-66.45999908447266,-38.28200149536133 -66.45999908447266,70.33000183105469 -66.45999908447266,70.33000183105469 C-66.45999908447266,78.0009994506836 -60.242000579833984,84.21900177001953 -52.57099914550781,84.21900177001953 C-52.57099914550781,84.21900177001953 22.733999252319336,84.21900177001953 22.733999252319336,84.21900177001953 C46.87900161743164,84.21900177001953 66.45999908447266,61.5099983215332 66.45999908447266,33.49100112915039 C66.45999908447266,33.49100112915039 66.45999908447266,-33.49100112915039 66.45999908447266,-33.49100112915039 C66.45999908447266,-61.5099983215332 46.87900161743164,-84.21900177001953 22.733999252319336,-84.21900177001953z"></path></g></g><g transform="matrix(0.9902680516242981,0.13917310535907745,-0.13917310535907745,0.9902680516242981,317.59381103515625,52.17597961425781)" opacity="1" style="display: block;"><g opacity="1" transform="matrix(1,0,0,1,8.309000015258789,156.94000244140625)"><path fill="rgb(255,66,156)" fill-opacity="1" d=" M7.309000015258789,155.94000244140625 C7.309000015258789,155.94000244140625 7.309000015258789,155.94000244140625 7.309000015258789,155.94000244140625z M-224.11399841308594,-217.93600463867188 C-224.11399841308594,-217.93600463867188 375.885986328125,-217.93600463867188 375.885986328125,-217.93600463867188 C375.885986328125,-217.93600463867188 375.885986328125,382.0639953613281 375.885986328125,382.0639953613281 C375.885986328125,382.0639953613281 -224.11399841308594,382.0639953613281 -224.11399841308594,382.0639953613281 C-224.11399841308594,382.0639953613281 -224.11399841308594,-217.93600463867188 -224.11399841308594,-217.93600463867188z M-224.11399841308594,382.0639953613281 C-224.11399841308594,382.0639953613281 375.885986328125,382.0639953613281 375.885986328125,382.0639953613281 C375.885986328125,382.0639953613281 375.885986328125,-217.93600463867188 375.885986328125,-217.93600463867188 C375.885986328125,-217.93600463867188 -224.11399841308594,-217.93600463867188 -224.11399841308594,-217.93600463867188 C-224.11399841308594,-217.93600463867188 -224.11399841308594,382.0639953613281 -224.11399841308594,382.0639953613281z"></path><g opacity="1" transform="matrix(1,0,0,1,0,0)"></g></g><g opacity="1" transform="matrix(1,0,0,1,69.40299987792969,48.5620002746582)"><path fill="rgb(0,174,255)" fill-opacity="1" d=" M31.798999786376953,2.0429999828338623 C30.358999252319336,1.5140000581741333 28.841999053955078,1.0870000123977661 27.440000534057617,0.6119999885559082 C27.69099998474121,-5.730999946594238 25.9060001373291,-12.199999809265137 21.900999069213867,-17.7450008392334 C19.30900001525879,-21.33099937438965 16.05699920654297,-24.160999298095703 12.4350004196167,-26.18600082397461 C8.645000457763672,-28.30699920654297 4.440999984741211,-29.547000885009766 0.1589999943971634,-29.85300064086914 C-6.484000205993652,-30.33300018310547 -13.317999839782715,-28.569000244140625 -19.14299964904785,-24.360000610351562 C-32.30500030517578,-14.852999687194824 -35.26900100708008,3.5239999294281006 -25.756999969482422,16.68400001525879 C-24.106000900268555,18.97100067138672 -22.187000274658203,20.95199966430664 -20.073999404907227,22.60300064086914 C-17.695999145507812,24.47100067138672 -15.076000213623047,25.93600082397461 -12.312000274658203,26.972999572753906 C-3.3959999084472656,30.332000732421875 6.98199987411499,29.29400062561035 15.28600025177002,23.29800033569336 C21.18600082397461,19.035999298095703 25.02899932861328,12.991000175476074 26.625,6.434000015258789 C27.753999710083008,6.84499979019165 28.895999908447266,7.256999969482422 30,7.572000026702881 C33.55400085449219,8.586999893188477 35.268001556396484,3.316999912261963 31.798999786376953,2.0429999828338623z"></path></g><g opacity="1" transform="matrix(1,0,0,1,58.41999816894531,46.882999420166016)"><path fill="rgb(0,0,0)" fill-opacity="1" d=" M16.461000442504883,-0.1459999978542328 C14.946000099182129,-1.7230000495910645 12.991999626159668,-2.9170000553131104 10.717000007629395,-3.502000093460083 C4.196000099182129,-5.185999870300293 -2.4549999237060547,-1.2610000371932983 -4.138999938964844,5.260000228881836 C-5.659999847412109,11.140000343322754 -2.61899995803833,17.125999450683594 2.7760000228881836,19.479999542236328 C1.9539999961853027,22.172000885009766 0.5120000243186951,25.44300079345703 -1.3289999961853027,28.652999877929688 C-4.093999862670898,27.617000579833984 -6.7129998207092285,26.152000427246094 -9.09000015258789,24.283000946044922 C-11.201000213623047,22.632999420166016 -13.121999740600586,20.649999618530273 -14.772000312805176,18.36400032043457 C-24.283000946044922,5.203000068664551 -21.320999145507812,-13.17300033569336 -8.15999984741211,-22.679000854492188 C-2.3320000171661377,-26.891000747680664 4.5,-28.652999877929688 11.145000457763672,-28.173999786376953 C15.425000190734863,-27.864999771118164 19.625999450683594,-26.62700080871582 23.416000366210938,-24.509000778198242 C24.283000946044922,-17.993999481201172 21.231000900268555,-7.552000045776367 16.461000442504883,-0.1459999978542328z"></path></g><g opacity="1" transform="matrix(1,0,0,1,90.76300048828125,43.74100112915039)"><path fill="rgb(0,0,0)" fill-opacity="1" d=" M2.4579999446868896,0.6340000033378601 C2.1080000400543213,1.9910000562667847 0.722000002861023,2.806999921798706 -0.6349999904632568,2.4570000171661377 C-1.9919999837875366,2.1059999465942383 -2.806999921798706,0.722000002861023 -2.4560000896453857,-0.6349999904632568 C-2.1059999465942383,-1.9919999837875366 -0.722000002861023,-2.808000087738037 0.6349999904632568,-2.4579999446868896 C1.9919999837875366,-2.1070001125335693 2.808000087738037,-0.7229999899864197 2.4579999446868896,0.6340000033378601z"></path></g><g opacity="1" transform="matrix(1,0,0,1,65.8759994506836,55.189998626708984)"><path fill="rgb(0,174,255)" fill-opacity="1" d=" M12.017999649047852,3.046999931335449 C10.333999633789062,9.567999839782715 3.683000087738037,13.494000434875488 -2.8380000591278076,11.8100004196167 C-3.4800000190734863,11.645999908447266 -4.093999862670898,11.432000160217285 -4.679999828338623,11.17300033569336 C-10.074999809265137,8.819000244140625 -13.116000175476074,2.8329999446868896 -11.595000267028809,-3.0460000038146973 C-9.91100025177002,-9.567999839782715 -3.259999990463257,-13.493000030517578 3.260999917984009,-11.809000015258789 C5.535999774932861,-11.222999572753906 7.489999771118164,-10.029999732971191 9.005000114440918,-8.45300006866455 C11.831999778747559,-5.501999855041504 13.116000175476074,-1.1990000009536743 12.017999649047852,3.046999931335449z"></path></g><g opacity="1" transform="matrix(1,0,0,1,25.444000244140625,33.0880012512207)"><path fill="rgb(0,0,0)" fill-opacity="1" d=" M24.823999404907227,11.121999740600586 C24.81999969482422,10.814000129699707 24.78499984741211,10.515000343322754 24.735000610351562,10.220999717712402 C24.839000701904297,9.609999656677246 24.844999313354492,9 24.756000518798828,8.409000396728516 C24.832000732421875,7.901000022888184 24.8439998626709,7.38700008392334 24.78499984741211,6.880000114440918 C24.926000595092773,5.623000144958496 24.658000946044922,4.313000202178955 23.93000030517578,3.1600000858306885 C23.93000030517578,3.1600000858306885 3.4000000953674316,-29.339000701904297 3.4000000953674316,-29.339000701904297 C1.6970000267028809,-32.034000396728516 -1.8680000305175781,-32.8380012512207 -4.561999797821045,-31.13599967956543 C-7.256999969482422,-29.433000564575195 -8.062000274658203,-25.868999481201172 -6.359000205993652,-23.173999786376953 C-6.359000205993652,-23.173999786376953 -2.1649999618530273,-16.534000396728516 -2.1649999618530273,-16.534000396728516 C-2.1649999618530273,-16.534000396728516 -7.559000015258789,-20.788999557495117 -7.559000015258789,-20.788999557495117 C-10.062000274658203,-22.76300048828125 -13.690999984741211,-22.333999633789062 -15.664999961853027,-19.83099937438965 C-17.638999938964844,-17.327999114990234 -17.208999633789062,-13.697999954223633 -14.706000328063965,-11.723999977111816 C-14.706000328063965,-11.723999977111816 -7.131999969482422,-5.75 -7.131999969482422,-5.75 C-7.131999969482422,-5.75 -15.479999542236328,-8.593000411987305 -15.479999542236328,-8.593000411987305 C-18.496999740600586,-9.621000289916992 -21.774999618530273,-8.008000373840332 -22.80299949645996,-4.989999771118164 C-23.829999923706055,-1.9730000495910645 -22.218000411987305,1.3070000410079956 -19.201000213623047,2.3350000381469727 C-19.201000213623047,2.3350000381469727 -9.204000473022461,5.736999988555908 -9.204000473022461,5.736999988555908 C-9.204000473022461,5.736999988555908 -19.45400047302246,5.854000091552734 -19.45400047302246,5.854000091552734 C-22.641000747680664,5.889999866485596 -25.194000244140625,8.503000259399414 -25.158000946044922,11.690999984741211 C-25.121999740600586,14.878000259399414 -22.510000228881836,17.433000564575195 -19.32200050354004,17.395999908447266 C-19.32200050354004,17.395999908447266 -9.138999938964844,17.2810001373291 -9.138999938964844,17.2810001373291 C-9.138999938964844,17.2810001373291 -19.033000946044922,20.90399932861328 -19.033000946044922,20.90399932861328 C-22.025999069213867,22 -23.56399917602539,25.31399917602539 -22.468000411987305,28.30699920654297 C-21.371999740600586,31.299999237060547 -18.05699920654297,32.8380012512207 -15.064000129699707,31.742000579833984 C-15.064000129699707,31.742000579833984 21.03499984741211,18.525999069213867 21.03499984741211,18.525999069213867 C23.68899917602539,17.554000854492188 25.19499969482422,14.84000015258789 24.73900032043457,12.149999618530273 C24.795000076293945,11.815999984741211 24.827999114990234,11.472999572753906 24.823999404907227,11.121999740600586z"></path></g><g opacity="1" transform="matrix(1,0,0,1,41.816001892089844,40.95899963378906)"><path fill="rgb(0,255,255)" fill-opacity="1" d=" M-3.49399995803833,17.322999954223633 C-4.7789998054504395,17.322999954223633 -6.013999938964844,16.60700035095215 -6.616000175476074,15.37399959564209 C-9.40999984741211,9.659000396728516 -9.8100004196167,3.197000026702881 -7.74399995803833,-2.819999933242798 C-5.677999973297119,-8.836999893188477 -1.3919999599456787,-13.689000129699707 4.323999881744385,-16.48200035095215 C6.046000003814697,-17.322999954223633 8.12600040435791,-16.611000061035156 8.968000411987305,-14.88700008392334 C9.8100004196167,-13.163999557495117 9.095999717712402,-11.085000038146973 7.373000144958496,-10.243000030517578 C3.3239998817443848,-8.263999938964844 0.2879999876022339,-4.827000141143799 -1.1759999990463257,-0.5640000104904175 C-2.640000104904175,3.697999954223633 -2.3559999465942383,8.276000022888184 -0.37700000405311584,12.324999809265137 C0.4650000035762787,14.04800033569336 -0.24899999797344208,16.12700080871582 -1.972000002861023,16.9689998626709 C-2.4619998931884766,17.208999633789062 -2.9820001125335693,17.322999954223633 -3.49399995803833,17.322999954223633z"></path></g><g opacity="1" transform="matrix(1,0,0,1,61.0890007019043,65.59600067138672)"><path stroke-linecap="round" stroke-linejoin="round" fill-opacity="0" stroke="rgb(255,227,0)" stroke-opacity="1" stroke-width="6.451" d=" M5.986000061035156,0 C5.986000061035156,3.305999994277954 3.305999994277954,5.986000061035156 0,5.986000061035156 C-3.305999994277954,5.986000061035156 -5.986000061035156,3.305999994277954 -5.986000061035156,0 C-5.986000061035156,-3.305999994277954 -3.305999994277954,-5.986000061035156 0,-5.986000061035156 C3.305999994277954,-5.986000061035156 5.986000061035156,-3.305999994277954 5.986000061035156,0z"></path></g></g><g transform="matrix(1,0,0,1,528.0260009765625,152.68499755859375)" opacity="1" style="display: block;"><g opacity="1" transform="matrix(1,0,0,1,15.385000228881836,25.10300064086914)"><path fill="rgb(0,160,0)" fill-opacity="1" d=" M-10.336999893188477,23.39299964904785 C-10.336999893188477,23.39299964904785 -10.336999893188477,23.39299964904785 -10.336999893188477,23.39299964904785 C-13.640999794006348,21.933000564575195 -15.13599967956543,18.07200050354004 -13.675999641418457,14.767999649047852 C-13.675999641418457,14.767999649047852 1.7120000123977661,-20.054000854492188 1.7120000123977661,-20.054000854492188 C3.171999931335449,-23.357999801635742 7.033999919891357,-24.85300064086914 10.336999893188477,-23.39299964904785 C13.640999794006348,-21.933000564575195 15.13599967956543,-18.070999145507812 13.675999641418457,-14.767999649047852 C13.675999641418457,-14.767999649047852 -1.7120000123977661,20.05500030517578 -1.7120000123977661,20.05500030517578 C-3.171999931335449,23.357999801635742 -7.0329999923706055,24.85300064086914 -10.336999893188477,23.39299964904785z"></path></g></g><g transform="matrix(1,0,0,1,503.94097900390625,172.06500244140625)" opacity="1" style="display: block;"><g opacity="1" transform="matrix(1,0,0,1,24.284000396728516,20.06599998474121)"><path fill="rgb(0,174,255)" fill-opacity="1" d=" M23.687999725341797,-7.140999794006348 C23.31800079345703,-10.371000289916992 19.46299934387207,-9.406000137329102 17.58300018310547,-9.053000450134277 C16.18000030517578,-8.789999961853027 12.1899995803833,-8.020999908447266 9.04699993133545,-9.083000183105469 C7.48799991607666,-9.609999656677246 7.482999801635742,-11.798999786376953 9.026000022888184,-12.371999740600586 C9.104000091552734,-12.401000022888184 11.444000244140625,-12.79699993133545 11.864999771118164,-12.888999938964844 C14.057000160217285,-13.366000175476074 12.376999855041504,-15.991999626159668 10.378999710083008,-17.01099967956543 C4.885000228881836,-19.815000534057617 -5.216000080108643,-17.344999313354492 -7.718999862670898,-14.019000053405762 C-11.128999710083008,-9.48799991607666 -14.128000259399414,-3.118000030517578 -18.982999801635742,-1.3009999990463257 C-20.69499969482422,-0.6610000133514404 -22.363000869750977,0.03400000184774399 -24.034000396728516,0.6439999938011169 C-24.034000396728516,0.6439999938011169 -16.07900047302246,19.81599998474121 -16.07900047302246,19.81599998474121 C-12.524999618530273,17.777999877929688 -10.61299991607666,15.480999946594238 -6.703999996185303,15.109000205993652 C-2.0360000133514404,14.666000366210938 2.742000102996826,14.795999526977539 7.429999828338623,14.812999725341797 C11.26099967956543,14.826000213623047 12.890999794006348,14.138999938964844 12.960000038146973,8.79800033569336 C16.408000946044922,9.125 18.47800064086914,6.480000019073486 17.534000396728516,2.1440000534057617 C19.732999801635742,2.2139999866485596 21.67099952697754,-1.3639999628067017 19.874000549316406,-3.6710000038146973 C21.739999771118164,-3.3580000400543213 24.034000396728516,-4.125 23.687999725341797,-7.140999794006348z"></path></g></g><g transform="matrix(1,0,0,1,355,313)" opacity="0.8" style="display: block;"><g opacity="1" transform="matrix(1,0,0,1,0,0)"><path fill="rgb(216,207,185)" fill-opacity="0" d=" M11.5,-134.5 C11.5,-134.5 34.9119987487793,-89.9280014038086 59.5,-79 C104.5,-59 135,-96 150,-109"></path><path stroke-linecap="round" stroke-linejoin="miter" fill-opacity="0" stroke-miterlimit="4" stroke="rgb(196,13,100)" stroke-opacity="1" stroke-width="35" d=" M11.5,-134.5 C11.5,-134.5 34.9119987487793,-89.9280014038086 59.5,-79 C104.5,-59 135,-96 150,-109"></path></g></g><g transform="matrix(1,0,0,1,346,405)" opacity="1" style="display: block;"><g opacity="1" transform="matrix(1,0,0,1,0,0)"><path fill="rgb(216,207,185)" fill-opacity="0" d=" M14.5,-126.5 C14.5,-126.5 20,-42 20.5,-25 C21.667999267578125,14.696999549865723 -9,58 -21,88"></path><path stroke-linecap="round" stroke-linejoin="miter" fill-opacity="0" stroke-miterlimit="4" stroke="rgb(38,230,22)" stroke-opacity="1" stroke-width="50" d=" M14.5,-126.5 C14.5,-126.5 20,-42 20.5,-25 C21.667999267578125,14.696999549865723 -9,58 -21,88"></path></g></g><g transform="matrix(1,0,0,1,346,405)" opacity="1" style="display: block;"><g opacity="1" transform="matrix(1,0,0,1,0,0)"><path fill="rgb(216,207,185)" fill-opacity="0" d=" M15,-126 C15,-126 57,-54 59.5,-21 C64.34700012207031,42.974998474121094 59,73 59,101"></path><path stroke-linecap="round" stroke-linejoin="miter" fill-opacity="0" stroke-miterlimit="4" stroke="rgb(60,255,44)" stroke-opacity="1" stroke-width="50" d=" M15,-126 C15,-126 57,-54 59.5,-21 C64.34700012207031,42.974998474121094 59,73 59,101"></path></g></g><g transform="matrix(1,0,0,1,378.84100341796875,511.6929931640625)" opacity="1" style="display: block;"><g opacity="1" transform="matrix(1,0,0,1,40.48400115966797,10.25)"><path fill="rgb(0,0,0)" fill-opacity="1" d=" M-17.950000762939453,-4.288000106811523 C-12.392999649047852,-5.504000186920166 -7.425000190734863,-7.449999809265137 -1.8339999914169312,-8.289999961853027 C9.539999961853027,-10 18.148000717163086,-6.294000148773193 28.597000122070312,-3.315999984741211 C30.381000518798828,-2.806999921798706 32.20899963378906,-2.2130000591278076 34.0359992980957,-1.5290000438690186 C40.233001708984375,0.7950000166893005 38.53900146484375,10.00100040435791 31.920000076293945,10.00100040435791 C31.920000076293945,10.00100040435791 -34.03799819946289,10.00100040435791 -34.03799819946289,10.00100040435791 C-37.12699890136719,10.00100040435791 -39.7130012512207,7.638999938964844 -39.97600173950195,4.561999797821045 C-40.23400115966797,1.5449999570846558 -40.082000732421875,-1.3569999933242798 -37.387001037597656,-3.0460000038146973 C-33.56399917602539,-5.440999984741211 -22.788000106811523,-3.2300000190734863 -17.950000762939453,-4.288000106811523z"></path></g></g><g transform="matrix(0.9702957272529602,-0.24192190170288086,0.24192190170288086,0.9702957272529602,285.0892639160156,499.26287841796875)" opacity="1" style="display: block;"><g opacity="1" transform="matrix(1,0,0,1,35.814998626708984,26.138999938964844)"><path fill="rgb(0,0,0)" fill-opacity="1" d=" M-10.800999641418457,-16.483999252319336 C-5.460000038146973,-14.527999877929688 -0.22200000286102295,-13.503999710083008 4.946000099182129,-11.213000297546387 C15.461000442504883,-6.550000190734863 20.733999252319336,1.1959999799728394 27.95199966430664,9.317000389099121 C29.184999465942383,10.704000473022461 30.409000396728516,12.185999870300293 31.58300018310547,13.744000434875488 C35.564998626708984,19.030000686645508 29.194000244140625,25.888999938964844 23.610000610351562,22.33799934387207 C23.610000610351562,22.33799934387207 -32.04499816894531,-13.062999725341797 -32.04499816894531,-13.062999725341797 C-34.6510009765625,-14.720999717712402 -35.564998626708984,-18.100000381469727 -34.1349983215332,-20.83799934387207 C-32.73400115966797,-23.52199935913086 -31.048999786376953,-25.888999938964844 -27.868000030517578,-25.868000030517578 C-23.356000900268555,-25.836999893188477 -15.451000213623047,-18.187000274658203 -10.800999641418457,-16.483999252319336z"></path></g></g></g><g clip-path="url(#__lottie_element_538)" transform="matrix(-1,0,0,1,713.5,69)" opacity="1" style="display: none;"><g clip-path="url(#__lottie_element_542)" transform="matrix(0.8326092958450317,-0.22740226984024048,0.5471091270446777,0.4796223044395447,-148.03652954101562,346.20098876953125)" opacity="1" style="display: block;"><g transform="matrix(1,0,0,1,216.12301635742188,148.84600830078125)" opacity="1" style="display: block;"><g opacity="1" transform="matrix(1,0,0,1,66.71099853515625,84.46900177001953)"><path fill="rgb(216,207,185)" fill-opacity="1" d=" M22.733999252319336,-84.21900177001953 C22.733999252319336,-84.21900177001953 -20.523000717163086,-84.21900177001953 -20.523000717163086,-84.21900177001953 C-45.893001556396484,-84.21900177001953 -66.45999908447266,-63.652000427246094 -66.45999908447266,-38.28200149536133 C-66.45999908447266,-38.28200149536133 -66.45999908447266,70.33000183105469 -66.45999908447266,70.33000183105469 C-66.45999908447266,78.0009994506836 -60.242000579833984,84.21900177001953 -52.57099914550781,84.21900177001953 C-52.57099914550781,84.21900177001953 22.733999252319336,84.21900177001953 22.733999252319336,84.21900177001953 C46.87900161743164,84.21900177001953 66.45999908447266,61.5099983215332 66.45999908447266,33.49100112915039 C66.45999908447266,33.49100112915039 66.45999908447266,-33.49100112915039 66.45999908447266,-33.49100112915039 C66.45999908447266,-61.5099983215332 46.87900161743164,-84.21900177001953 22.733999252319336,-84.21900177001953z"></path></g></g><g transform="matrix(0.9876883625984192,-0.15643444657325745,0.15643444657325745,0.9876883625984192,207.4925537109375,72.26871490478516)" opacity="1" style="display: block;"><g opacity="1" transform="matrix(1,0,0,1,8.309000015258789,156.94000244140625)"><path fill="rgb(216,207,185)" fill-opacity="1" d=" M7.309000015258789,155.94000244140625 C7.309000015258789,155.94000244140625 7.309000015258789,155.94000244140625 7.309000015258789,155.94000244140625z M-224.11399841308594,-217.93600463867188 C-224.11399841308594,-217.93600463867188 375.885986328125,-217.93600463867188 375.885986328125,-217.93600463867188 C375.885986328125,-217.93600463867188 375.885986328125,382.0639953613281 375.885986328125,382.0639953613281 C375.885986328125,382.0639953613281 -224.11399841308594,382.0639953613281 -224.11399841308594,382.0639953613281 C-224.11399841308594,382.0639953613281 -224.11399841308594,-217.93600463867188 -224.11399841308594,-217.93600463867188z M-224.11399841308594,382.0639953613281 C-224.11399841308594,382.0639953613281 375.885986328125,382.0639953613281 375.885986328125,382.0639953613281 C375.885986328125,382.0639953613281 375.885986328125,-217.93600463867188 375.885986328125,-217.93600463867188 C375.885986328125,-217.93600463867188 -224.11399841308594,-217.93600463867188 -224.11399841308594,-217.93600463867188 C-224.11399841308594,-217.93600463867188 -224.11399841308594,382.0639953613281 -224.11399841308594,382.0639953613281z"></path><g opacity="1" transform="matrix(1,0,0,1,0,0)"></g></g><g opacity="1" transform="matrix(1,0,0,1,69.40299987792969,48.5620002746582)"><path fill="rgb(216,207,185)" fill-opacity="1" d=" M31.798999786376953,2.0429999828338623 C30.358999252319336,1.5140000581741333 28.841999053955078,1.0870000123977661 27.440000534057617,0.6119999885559082 C27.69099998474121,-5.730999946594238 25.9060001373291,-12.199999809265137 21.900999069213867,-17.7450008392334 C19.30900001525879,-21.33099937438965 16.05699920654297,-24.160999298095703 12.4350004196167,-26.18600082397461 C8.645000457763672,-28.30699920654297 4.440999984741211,-29.547000885009766 0.1589999943971634,-29.85300064086914 C-6.484000205993652,-30.33300018310547 -13.317999839782715,-28.569000244140625 -19.14299964904785,-24.360000610351562 C-32.30500030517578,-14.852999687194824 -35.26900100708008,3.5239999294281006 -25.756999969482422,16.68400001525879 C-24.106000900268555,18.97100067138672 -22.187000274658203,20.95199966430664 -20.073999404907227,22.60300064086914 C-17.695999145507812,24.47100067138672 -15.076000213623047,25.93600082397461 -12.312000274658203,26.972999572753906 C-3.3959999084472656,30.332000732421875 6.98199987411499,29.29400062561035 15.28600025177002,23.29800033569336 C21.18600082397461,19.035999298095703 25.02899932861328,12.991000175476074 26.625,6.434000015258789 C27.753999710083008,6.84499979019165 28.895999908447266,7.256999969482422 30,7.572000026702881 C33.55400085449219,8.586999893188477 35.268001556396484,3.316999912261963 31.798999786376953,2.0429999828338623z"></path></g><g opacity="1" transform="matrix(1,0,0,1,58.41999816894531,46.882999420166016)"><path fill="rgb(216,207,185)" fill-opacity="1" d=" M16.461000442504883,-0.1459999978542328 C14.946000099182129,-1.7230000495910645 12.991999626159668,-2.9170000553131104 10.717000007629395,-3.502000093460083 C4.196000099182129,-5.185999870300293 -2.4549999237060547,-1.2610000371932983 -4.138999938964844,5.260000228881836 C-5.659999847412109,11.140000343322754 -2.61899995803833,17.125999450683594 2.7760000228881836,19.479999542236328 C1.9539999961853027,22.172000885009766 0.5120000243186951,25.44300079345703 -1.3289999961853027,28.652999877929688 C-4.093999862670898,27.617000579833984 -6.7129998207092285,26.152000427246094 -9.09000015258789,24.283000946044922 C-11.201000213623047,22.632999420166016 -13.121999740600586,20.649999618530273 -14.772000312805176,18.36400032043457 C-24.283000946044922,5.203000068664551 -21.320999145507812,-13.17300033569336 -8.15999984741211,-22.679000854492188 C-2.3320000171661377,-26.891000747680664 4.5,-28.652999877929688 11.145000457763672,-28.173999786376953 C15.425000190734863,-27.864999771118164 19.625999450683594,-26.62700080871582 23.416000366210938,-24.509000778198242 C24.283000946044922,-17.993999481201172 21.231000900268555,-7.552000045776367 16.461000442504883,-0.1459999978542328z"></path></g><g opacity="1" transform="matrix(1,0,0,1,90.76300048828125,43.74100112915039)"><path fill="rgb(216,207,185)" fill-opacity="1" d=" M2.4579999446868896,0.6340000033378601 C2.1080000400543213,1.9910000562667847 0.722000002861023,2.806999921798706 -0.6349999904632568,2.4570000171661377 C-1.9919999837875366,2.1059999465942383 -2.806999921798706,0.722000002861023 -2.4560000896453857,-0.6349999904632568 C-2.1059999465942383,-1.9919999837875366 -0.722000002861023,-2.808000087738037 0.6349999904632568,-2.4579999446868896 C1.9919999837875366,-2.1070001125335693 2.808000087738037,-0.7229999899864197 2.4579999446868896,0.6340000033378601z"></path></g><g opacity="1" transform="matrix(1,0,0,1,65.8759994506836,55.189998626708984)"><path fill="rgb(216,207,185)" fill-opacity="1" d=" M12.017999649047852,3.046999931335449 C10.333999633789062,9.567999839782715 3.683000087738037,13.494000434875488 -2.8380000591278076,11.8100004196167 C-3.4800000190734863,11.645999908447266 -4.093999862670898,11.432000160217285 -4.679999828338623,11.17300033569336 C-10.074999809265137,8.819000244140625 -13.116000175476074,2.8329999446868896 -11.595000267028809,-3.0460000038146973 C-9.91100025177002,-9.567999839782715 -3.259999990463257,-13.493000030517578 3.260999917984009,-11.809000015258789 C5.535999774932861,-11.222999572753906 7.489999771118164,-10.029999732971191 9.005000114440918,-8.45300006866455 C11.831999778747559,-5.501999855041504 13.116000175476074,-1.1990000009536743 12.017999649047852,3.046999931335449z"></path></g><g opacity="1" transform="matrix(1,0,0,1,25.444000244140625,33.0880012512207)"><path fill="rgb(216,207,185)" fill-opacity="1" d=" M24.823999404907227,11.121999740600586 C24.81999969482422,10.814000129699707 24.78499984741211,10.515000343322754 24.735000610351562,10.220999717712402 C24.839000701904297,9.609999656677246 24.844999313354492,9 24.756000518798828,8.409000396728516 C24.832000732421875,7.901000022888184 24.8439998626709,7.38700008392334 24.78499984741211,6.880000114440918 C24.926000595092773,5.623000144958496 24.658000946044922,4.313000202178955 23.93000030517578,3.1600000858306885 C23.93000030517578,3.1600000858306885 3.4000000953674316,-29.339000701904297 3.4000000953674316,-29.339000701904297 C1.6970000267028809,-32.034000396728516 -1.8680000305175781,-32.8380012512207 -4.561999797821045,-31.13599967956543 C-7.256999969482422,-29.433000564575195 -8.062000274658203,-25.868999481201172 -6.359000205993652,-23.173999786376953 C-6.359000205993652,-23.173999786376953 -2.1649999618530273,-16.534000396728516 -2.1649999618530273,-16.534000396728516 C-2.1649999618530273,-16.534000396728516 -7.559000015258789,-20.788999557495117 -7.559000015258789,-20.788999557495117 C-10.062000274658203,-22.76300048828125 -13.690999984741211,-22.333999633789062 -15.664999961853027,-19.83099937438965 C-17.638999938964844,-17.327999114990234 -17.208999633789062,-13.697999954223633 -14.706000328063965,-11.723999977111816 C-14.706000328063965,-11.723999977111816 -7.131999969482422,-5.75 -7.131999969482422,-5.75 C-7.131999969482422,-5.75 -15.479999542236328,-8.593000411987305 -15.479999542236328,-8.593000411987305 C-18.496999740600586,-9.621000289916992 -21.774999618530273,-8.008000373840332 -22.80299949645996,-4.989999771118164 C-23.829999923706055,-1.9730000495910645 -22.218000411987305,1.3070000410079956 -19.201000213623047,2.3350000381469727 C-19.201000213623047,2.3350000381469727 -9.204000473022461,5.736999988555908 -9.204000473022461,5.736999988555908 C-9.204000473022461,5.736999988555908 -19.45400047302246,5.854000091552734 -19.45400047302246,5.854000091552734 C-22.641000747680664,5.889999866485596 -25.194000244140625,8.503000259399414 -25.158000946044922,11.690999984741211 C-25.121999740600586,14.878000259399414 -22.510000228881836,17.433000564575195 -19.32200050354004,17.395999908447266 C-19.32200050354004,17.395999908447266 -9.138999938964844,17.2810001373291 -9.138999938964844,17.2810001373291 C-9.138999938964844,17.2810001373291 -19.033000946044922,20.90399932861328 -19.033000946044922,20.90399932861328 C-22.025999069213867,22 -23.56399917602539,25.31399917602539 -22.468000411987305,28.30699920654297 C-21.371999740600586,31.299999237060547 -18.05699920654297,32.8380012512207 -15.064000129699707,31.742000579833984 C-15.064000129699707,31.742000579833984 21.03499984741211,18.525999069213867 21.03499984741211,18.525999069213867 C23.68899917602539,17.554000854492188 25.19499969482422,14.84000015258789 24.73900032043457,12.149999618530273 C24.795000076293945,11.815999984741211 24.827999114990234,11.472999572753906 24.823999404907227,11.121999740600586z"></path></g><g opacity="1" transform="matrix(1,0,0,1,41.816001892089844,40.95899963378906)"><path fill="rgb(216,207,185)" fill-opacity="1" d=" M-3.49399995803833,17.322999954223633 C-4.7789998054504395,17.322999954223633 -6.013999938964844,16.60700035095215 -6.616000175476074,15.37399959564209 C-9.40999984741211,9.659000396728516 -9.8100004196167,3.197000026702881 -7.74399995803833,-2.819999933242798 C-5.677999973297119,-8.836999893188477 -1.3919999599456787,-13.689000129699707 4.323999881744385,-16.48200035095215 C6.046000003814697,-17.322999954223633 8.12600040435791,-16.611000061035156 8.968000411987305,-14.88700008392334 C9.8100004196167,-13.163999557495117 9.095999717712402,-11.085000038146973 7.373000144958496,-10.243000030517578 C3.3239998817443848,-8.263999938964844 0.2879999876022339,-4.827000141143799 -1.1759999990463257,-0.5640000104904175 C-2.640000104904175,3.697999954223633 -2.3559999465942383,8.276000022888184 -0.37700000405311584,12.324999809265137 C0.4650000035762787,14.04800033569336 -0.24899999797344208,16.12700080871582 -1.972000002861023,16.9689998626709 C-2.4619998931884766,17.208999633789062 -2.9820001125335693,17.322999954223633 -3.49399995803833,17.322999954223633z"></path></g><g opacity="1" transform="matrix(1,0,0,1,61.0890007019043,65.59600067138672)"><path stroke-linecap="round" stroke-linejoin="round" fill-opacity="0" stroke="rgb(216,207,185)" stroke-opacity="1" stroke-width="6.451" d=" M5.986000061035156,0 C5.986000061035156,3.305999994277954 3.305999994277954,5.986000061035156 0,5.986000061035156 C-3.305999994277954,5.986000061035156 -5.986000061035156,3.305999994277954 -5.986000061035156,0 C-5.986000061035156,-3.305999994277954 -3.305999994277954,-5.986000061035156 0,-5.986000061035156 C3.305999994277954,-5.986000061035156 5.986000061035156,-3.305999994277954 5.986000061035156,0z"></path></g></g><g transform="matrix(0.9063078165054321,0.42261824011802673,-0.42261824011802673,0.9063078165054321,435.0764465332031,208.53497314453125)" opacity="1" style="display: block;"><g opacity="1" transform="matrix(1,0,0,1,15.385000228881836,25.10300064086914)"><path fill="rgb(216,207,185)" fill-opacity="1" d=" M-10.336999893188477,23.39299964904785 C-10.336999893188477,23.39299964904785 -10.336999893188477,23.39299964904785 -10.336999893188477,23.39299964904785 C-13.640999794006348,21.933000564575195 -15.13599967956543,18.07200050354004 -13.675999641418457,14.767999649047852 C-13.675999641418457,14.767999649047852 1.7120000123977661,-20.054000854492188 1.7120000123977661,-20.054000854492188 C3.171999931335449,-23.357999801635742 7.033999919891357,-24.85300064086914 10.336999893188477,-23.39299964904785 C13.640999794006348,-21.933000564575195 15.13599967956543,-18.070999145507812 13.675999641418457,-14.767999649047852 C13.675999641418457,-14.767999649047852 -1.7120000123977661,20.05500030517578 -1.7120000123977661,20.05500030517578 C-3.171999931335449,23.357999801635742 -7.0329999923706055,24.85300064086914 -10.336999893188477,23.39299964904785z"></path></g></g><g transform="matrix(0.9455185532569885,0.32556813955307007,-0.32556813955307007,0.9455185532569885,404.296875,220.7521209716797)" opacity="1" style="display: block;"><g opacity="1" transform="matrix(1,0,0,1,24.284000396728516,20.06599998474121)"><path fill="rgb(216,207,185)" fill-opacity="1" d=" M23.687999725341797,-7.140999794006348 C23.31800079345703,-10.371000289916992 19.46299934387207,-9.406000137329102 17.58300018310547,-9.053000450134277 C16.18000030517578,-8.789999961853027 12.1899995803833,-8.020999908447266 9.04699993133545,-9.083000183105469 C7.48799991607666,-9.609999656677246 7.482999801635742,-11.798999786376953 9.026000022888184,-12.371999740600586 C9.104000091552734,-12.401000022888184 11.444000244140625,-12.79699993133545 11.864999771118164,-12.888999938964844 C14.057000160217285,-13.366000175476074 12.376999855041504,-15.991999626159668 10.378999710083008,-17.01099967956543 C4.885000228881836,-19.815000534057617 -5.216000080108643,-17.344999313354492 -7.718999862670898,-14.019000053405762 C-11.128999710083008,-9.48799991607666 -14.128000259399414,-3.118000030517578 -18.982999801635742,-1.3009999990463257 C-20.69499969482422,-0.6610000133514404 -22.363000869750977,0.03400000184774399 -24.034000396728516,0.6439999938011169 C-24.034000396728516,0.6439999938011169 -16.07900047302246,19.81599998474121 -16.07900047302246,19.81599998474121 C-12.524999618530273,17.777999877929688 -10.61299991607666,15.480999946594238 -6.703999996185303,15.109000205993652 C-2.0360000133514404,14.666000366210938 2.742000102996826,14.795999526977539 7.429999828338623,14.812999725341797 C11.26099967956543,14.826000213623047 12.890999794006348,14.138999938964844 12.960000038146973,8.79800033569336 C16.408000946044922,9.125 18.47800064086914,6.480000019073486 17.534000396728516,2.1440000534057617 C19.732999801635742,2.2139999866485596 21.67099952697754,-1.3639999628067017 19.874000549316406,-3.6710000038146973 C21.739999771118164,-3.3580000400543213 24.034000396728516,-4.125 23.687999725341797,-7.140999794006348z"></path></g></g><g transform="matrix(1,0,0,1,262,313)" opacity="0.8" style="display: block;"><g opacity="1" transform="matrix(1,0,0,1,0,0)"><path fill="rgb(216,207,185)" fill-opacity="0" d=" M11.5,-134.5 C11.5,-134.5 28.742000579833984,-86.61900329589844 51,-71.5 C77.5,-53.5 114.5,-50.5 140,-62"></path><path stroke-linecap="round" stroke-linejoin="miter" fill-opacity="0" stroke-miterlimit="4" stroke="rgb(216,207,185)" stroke-opacity="1" stroke-width="35" d=" M11.5,-134.5 C11.5,-134.5 28.742000579833984,-86.61900329589844 51,-71.5 C77.5,-53.5 114.5,-50.5 140,-62"></path></g></g><g transform="matrix(1,0,0,1,253,405)" opacity="0.8" style="display: block;"><g opacity="1" transform="matrix(1,0,0,1,0,0)"><path fill="rgb(216,207,185)" fill-opacity="0" d=" M15,-126 C15,-126 57,-54 59.5,-21 C64.34700012207031,42.974998474121094 59.5,82.75 59.5,110.75"></path><path stroke-linecap="round" stroke-linejoin="miter" fill-opacity="0" stroke-miterlimit="4" stroke="rgb(216,207,185)" stroke-opacity="1" stroke-width="40" d=" M15,-126 C15,-126 57,-54 59.5,-21 C64.34700012207031,42.974998474121094 59.5,82.75 59.5,110.75"></path></g></g><g transform="matrix(1,0,0,1,253,405)" opacity="0.8" style="display: block;"><g opacity="1" transform="matrix(1,0,0,1,0,0)"><path fill="rgb(216,207,185)" fill-opacity="0" d=" M14.5,-126.5 C14.5,-126.5 20,-42 20.5,-25 C21.667999267578125,14.696999549865723 16.5,24.375 4.5,54.375"></path><path stroke-linecap="round" stroke-linejoin="miter" fill-opacity="0" stroke-miterlimit="4" stroke="rgb(216,207,185)" stroke-opacity="1" stroke-width="40" d=" M14.5,-126.5 C14.5,-126.5 20,-42 20.5,-25 C21.667999267578125,14.696999549865723 16.5,24.375 4.5,54.375"></path></g></g></g><g transform="matrix(1,0,0,1,309.1230163574219,148.84600830078125)" opacity="1" style="display: block;"><g opacity="1" transform="matrix(1,0,0,1,66.71099853515625,84.46900177001953)"><path fill="rgb(255,66,156)" fill-opacity="1" d=" M22.733999252319336,-84.21900177001953 C22.733999252319336,-84.21900177001953 -20.523000717163086,-84.21900177001953 -20.523000717163086,-84.21900177001953 C-45.893001556396484,-84.21900177001953 -66.45999908447266,-63.652000427246094 -66.45999908447266,-38.28200149536133 C-66.45999908447266,-38.28200149536133 -66.45999908447266,70.33000183105469 -66.45999908447266,70.33000183105469 C-66.45999908447266,78.0009994506836 -60.242000579833984,84.21900177001953 -52.57099914550781,84.21900177001953 C-52.57099914550781,84.21900177001953 22.733999252319336,84.21900177001953 22.733999252319336,84.21900177001953 C46.87900161743164,84.21900177001953 66.45999908447266,61.5099983215332 66.45999908447266,33.49100112915039 C66.45999908447266,33.49100112915039 66.45999908447266,-33.49100112915039 66.45999908447266,-33.49100112915039 C66.45999908447266,-61.5099983215332 46.87900161743164,-84.21900177001953 22.733999252319336,-84.21900177001953z"></path></g></g><g transform="matrix(0.9876883625984192,-0.15643444657325745,0.15643444657325745,0.9876883625984192,300.4925537109375,72.26871490478516)" opacity="1" style="display: block;"><g opacity="1" transform="matrix(1,0,0,1,8.309000015258789,156.94000244140625)"><path fill="rgb(255,66,156)" fill-opacity="1" d=" M7.309000015258789,155.94000244140625 C7.309000015258789,155.94000244140625 7.309000015258789,155.94000244140625 7.309000015258789,155.94000244140625z M-224.11399841308594,-217.93600463867188 C-224.11399841308594,-217.93600463867188 375.885986328125,-217.93600463867188 375.885986328125,-217.93600463867188 C375.885986328125,-217.93600463867188 375.885986328125,382.0639953613281 375.885986328125,382.0639953613281 C375.885986328125,382.0639953613281 -224.11399841308594,382.0639953613281 -224.11399841308594,382.0639953613281 C-224.11399841308594,382.0639953613281 -224.11399841308594,-217.93600463867188 -224.11399841308594,-217.93600463867188z M-224.11399841308594,382.0639953613281 C-224.11399841308594,382.0639953613281 375.885986328125,382.0639953613281 375.885986328125,382.0639953613281 C375.885986328125,382.0639953613281 375.885986328125,-217.93600463867188 375.885986328125,-217.93600463867188 C375.885986328125,-217.93600463867188 -224.11399841308594,-217.93600463867188 -224.11399841308594,-217.93600463867188 C-224.11399841308594,-217.93600463867188 -224.11399841308594,382.0639953613281 -224.11399841308594,382.0639953613281z"></path><g opacity="1" transform="matrix(1,0,0,1,0,0)"></g></g><g opacity="1" transform="matrix(1,0,0,1,69.40299987792969,48.5620002746582)"><path fill="rgb(0,174,255)" fill-opacity="1" d=" M31.798999786376953,2.0429999828338623 C30.358999252319336,1.5140000581741333 28.841999053955078,1.0870000123977661 27.440000534057617,0.6119999885559082 C27.69099998474121,-5.730999946594238 25.9060001373291,-12.199999809265137 21.900999069213867,-17.7450008392334 C19.30900001525879,-21.33099937438965 16.05699920654297,-24.160999298095703 12.4350004196167,-26.18600082397461 C8.645000457763672,-28.30699920654297 4.440999984741211,-29.547000885009766 0.1589999943971634,-29.85300064086914 C-6.484000205993652,-30.33300018310547 -13.317999839782715,-28.569000244140625 -19.14299964904785,-24.360000610351562 C-32.30500030517578,-14.852999687194824 -35.26900100708008,3.5239999294281006 -25.756999969482422,16.68400001525879 C-24.106000900268555,18.97100067138672 -22.187000274658203,20.95199966430664 -20.073999404907227,22.60300064086914 C-17.695999145507812,24.47100067138672 -15.076000213623047,25.93600082397461 -12.312000274658203,26.972999572753906 C-3.3959999084472656,30.332000732421875 6.98199987411499,29.29400062561035 15.28600025177002,23.29800033569336 C21.18600082397461,19.035999298095703 25.02899932861328,12.991000175476074 26.625,6.434000015258789 C27.753999710083008,6.84499979019165 28.895999908447266,7.256999969482422 30,7.572000026702881 C33.55400085449219,8.586999893188477 35.268001556396484,3.316999912261963 31.798999786376953,2.0429999828338623z"></path></g><g opacity="1" transform="matrix(1,0,0,1,58.41999816894531,46.882999420166016)"><path fill="rgb(0,0,0)" fill-opacity="1" d=" M16.461000442504883,-0.1459999978542328 C14.946000099182129,-1.7230000495910645 12.991999626159668,-2.9170000553131104 10.717000007629395,-3.502000093460083 C4.196000099182129,-5.185999870300293 -2.4549999237060547,-1.2610000371932983 -4.138999938964844,5.260000228881836 C-5.659999847412109,11.140000343322754 -2.61899995803833,17.125999450683594 2.7760000228881836,19.479999542236328 C1.9539999961853027,22.172000885009766 0.5120000243186951,25.44300079345703 -1.3289999961853027,28.652999877929688 C-4.093999862670898,27.617000579833984 -6.7129998207092285,26.152000427246094 -9.09000015258789,24.283000946044922 C-11.201000213623047,22.632999420166016 -13.121999740600586,20.649999618530273 -14.772000312805176,18.36400032043457 C-24.283000946044922,5.203000068664551 -21.320999145507812,-13.17300033569336 -8.15999984741211,-22.679000854492188 C-2.3320000171661377,-26.891000747680664 4.5,-28.652999877929688 11.145000457763672,-28.173999786376953 C15.425000190734863,-27.864999771118164 19.625999450683594,-26.62700080871582 23.416000366210938,-24.509000778198242 C24.283000946044922,-17.993999481201172 21.231000900268555,-7.552000045776367 16.461000442504883,-0.1459999978542328z"></path></g><g opacity="1" transform="matrix(1,0,0,1,90.76300048828125,43.74100112915039)"><path fill="rgb(0,0,0)" fill-opacity="1" d=" M2.4579999446868896,0.6340000033378601 C2.1080000400543213,1.9910000562667847 0.722000002861023,2.806999921798706 -0.6349999904632568,2.4570000171661377 C-1.9919999837875366,2.1059999465942383 -2.806999921798706,0.722000002861023 -2.4560000896453857,-0.6349999904632568 C-2.1059999465942383,-1.9919999837875366 -0.722000002861023,-2.808000087738037 0.6349999904632568,-2.4579999446868896 C1.9919999837875366,-2.1070001125335693 2.808000087738037,-0.7229999899864197 2.4579999446868896,0.6340000033378601z"></path></g><g opacity="1" transform="matrix(1,0,0,1,65.8759994506836,55.189998626708984)"><path fill="rgb(0,174,255)" fill-opacity="1" d=" M12.017999649047852,3.046999931335449 C10.333999633789062,9.567999839782715 3.683000087738037,13.494000434875488 -2.8380000591278076,11.8100004196167 C-3.4800000190734863,11.645999908447266 -4.093999862670898,11.432000160217285 -4.679999828338623,11.17300033569336 C-10.074999809265137,8.819000244140625 -13.116000175476074,2.8329999446868896 -11.595000267028809,-3.0460000038146973 C-9.91100025177002,-9.567999839782715 -3.259999990463257,-13.493000030517578 3.260999917984009,-11.809000015258789 C5.535999774932861,-11.222999572753906 7.489999771118164,-10.029999732971191 9.005000114440918,-8.45300006866455 C11.831999778747559,-5.501999855041504 13.116000175476074,-1.1990000009536743 12.017999649047852,3.046999931335449z"></path></g><g opacity="1" transform="matrix(1,0,0,1,25.444000244140625,33.0880012512207)"><path fill="rgb(0,0,0)" fill-opacity="1" d=" M24.823999404907227,11.121999740600586 C24.81999969482422,10.814000129699707 24.78499984741211,10.515000343322754 24.735000610351562,10.220999717712402 C24.839000701904297,9.609999656677246 24.844999313354492,9 24.756000518798828,8.409000396728516 C24.832000732421875,7.901000022888184 24.8439998626709,7.38700008392334 24.78499984741211,6.880000114440918 C24.926000595092773,5.623000144958496 24.658000946044922,4.313000202178955 23.93000030517578,3.1600000858306885 C23.93000030517578,3.1600000858306885 3.4000000953674316,-29.339000701904297 3.4000000953674316,-29.339000701904297 C1.6970000267028809,-32.034000396728516 -1.8680000305175781,-32.8380012512207 -4.561999797821045,-31.13599967956543 C-7.256999969482422,-29.433000564575195 -8.062000274658203,-25.868999481201172 -6.359000205993652,-23.173999786376953 C-6.359000205993652,-23.173999786376953 -2.1649999618530273,-16.534000396728516 -2.1649999618530273,-16.534000396728516 C-2.1649999618530273,-16.534000396728516 -7.559000015258789,-20.788999557495117 -7.559000015258789,-20.788999557495117 C-10.062000274658203,-22.76300048828125 -13.690999984741211,-22.333999633789062 -15.664999961853027,-19.83099937438965 C-17.638999938964844,-17.327999114990234 -17.208999633789062,-13.697999954223633 -14.706000328063965,-11.723999977111816 C-14.706000328063965,-11.723999977111816 -7.131999969482422,-5.75 -7.131999969482422,-5.75 C-7.131999969482422,-5.75 -15.479999542236328,-8.593000411987305 -15.479999542236328,-8.593000411987305 C-18.496999740600586,-9.621000289916992 -21.774999618530273,-8.008000373840332 -22.80299949645996,-4.989999771118164 C-23.829999923706055,-1.9730000495910645 -22.218000411987305,1.3070000410079956 -19.201000213623047,2.3350000381469727 C-19.201000213623047,2.3350000381469727 -9.204000473022461,5.736999988555908 -9.204000473022461,5.736999988555908 C-9.204000473022461,5.736999988555908 -19.45400047302246,5.854000091552734 -19.45400047302246,5.854000091552734 C-22.641000747680664,5.889999866485596 -25.194000244140625,8.503000259399414 -25.158000946044922,11.690999984741211 C-25.121999740600586,14.878000259399414 -22.510000228881836,17.433000564575195 -19.32200050354004,17.395999908447266 C-19.32200050354004,17.395999908447266 -9.138999938964844,17.2810001373291 -9.138999938964844,17.2810001373291 C-9.138999938964844,17.2810001373291 -19.033000946044922,20.90399932861328 -19.033000946044922,20.90399932861328 C-22.025999069213867,22 -23.56399917602539,25.31399917602539 -22.468000411987305,28.30699920654297 C-21.371999740600586,31.299999237060547 -18.05699920654297,32.8380012512207 -15.064000129699707,31.742000579833984 C-15.064000129699707,31.742000579833984 21.03499984741211,18.525999069213867 21.03499984741211,18.525999069213867 C23.68899917602539,17.554000854492188 25.19499969482422,14.84000015258789 24.73900032043457,12.149999618530273 C24.795000076293945,11.815999984741211 24.827999114990234,11.472999572753906 24.823999404907227,11.121999740600586z"></path></g><g opacity="1" transform="matrix(1,0,0,1,41.816001892089844,40.95899963378906)"><path fill="rgb(0,255,255)" fill-opacity="1" d=" M-3.49399995803833,17.322999954223633 C-4.7789998054504395,17.322999954223633 -6.013999938964844,16.60700035095215 -6.616000175476074,15.37399959564209 C-9.40999984741211,9.659000396728516 -9.8100004196167,3.197000026702881 -7.74399995803833,-2.819999933242798 C-5.677999973297119,-8.836999893188477 -1.3919999599456787,-13.689000129699707 4.323999881744385,-16.48200035095215 C6.046000003814697,-17.322999954223633 8.12600040435791,-16.611000061035156 8.968000411987305,-14.88700008392334 C9.8100004196167,-13.163999557495117 9.095999717712402,-11.085000038146973 7.373000144958496,-10.243000030517578 C3.3239998817443848,-8.263999938964844 0.2879999876022339,-4.827000141143799 -1.1759999990463257,-0.5640000104904175 C-2.640000104904175,3.697999954223633 -2.3559999465942383,8.276000022888184 -0.37700000405311584,12.324999809265137 C0.4650000035762787,14.04800033569336 -0.24899999797344208,16.12700080871582 -1.972000002861023,16.9689998626709 C-2.4619998931884766,17.208999633789062 -2.9820001125335693,17.322999954223633 -3.49399995803833,17.322999954223633z"></path></g><g opacity="1" transform="matrix(1,0,0,1,61.0890007019043,65.59600067138672)"><path stroke-linecap="round" stroke-linejoin="round" fill-opacity="0" stroke="rgb(255,227,0)" stroke-opacity="1" stroke-width="6.451" d=" M5.986000061035156,0 C5.986000061035156,3.305999994277954 3.305999994277954,5.986000061035156 0,5.986000061035156 C-3.305999994277954,5.986000061035156 -5.986000061035156,3.305999994277954 -5.986000061035156,0 C-5.986000061035156,-3.305999994277954 -3.305999994277954,-5.986000061035156 0,-5.986000061035156 C3.305999994277954,-5.986000061035156 5.986000061035156,-3.305999994277954 5.986000061035156,0z"></path></g></g><g transform="matrix(0.9063078165054321,0.42261824011802673,-0.42261824011802673,0.9063078165054321,528.0764770507812,208.53497314453125)" opacity="1" style="display: block;"><g opacity="1" transform="matrix(1,0,0,1,15.385000228881836,25.10300064086914)"><path fill="rgb(0,160,0)" fill-opacity="1" d=" M-10.336999893188477,23.39299964904785 C-10.336999893188477,23.39299964904785 -10.336999893188477,23.39299964904785 -10.336999893188477,23.39299964904785 C-13.640999794006348,21.933000564575195 -15.13599967956543,18.07200050354004 -13.675999641418457,14.767999649047852 C-13.675999641418457,14.767999649047852 1.7120000123977661,-20.054000854492188 1.7120000123977661,-20.054000854492188 C3.171999931335449,-23.357999801635742 7.033999919891357,-24.85300064086914 10.336999893188477,-23.39299964904785 C13.640999794006348,-21.933000564575195 15.13599967956543,-18.070999145507812 13.675999641418457,-14.767999649047852 C13.675999641418457,-14.767999649047852 -1.7120000123977661,20.05500030517578 -1.7120000123977661,20.05500030517578 C-3.171999931335449,23.357999801635742 -7.0329999923706055,24.85300064086914 -10.336999893188477,23.39299964904785z"></path></g></g><g transform="matrix(0.9455185532569885,0.32556813955307007,-0.32556813955307007,0.9455185532569885,497.2968444824219,220.7521209716797)" opacity="1" style="display: block;"><g opacity="1" transform="matrix(1,0,0,1,24.284000396728516,20.06599998474121)"><path fill="rgb(0,174,255)" fill-opacity="1" d=" M23.687999725341797,-7.140999794006348 C23.31800079345703,-10.371000289916992 19.46299934387207,-9.406000137329102 17.58300018310547,-9.053000450134277 C16.18000030517578,-8.789999961853027 12.1899995803833,-8.020999908447266 9.04699993133545,-9.083000183105469 C7.48799991607666,-9.609999656677246 7.482999801635742,-11.798999786376953 9.026000022888184,-12.371999740600586 C9.104000091552734,-12.401000022888184 11.444000244140625,-12.79699993133545 11.864999771118164,-12.888999938964844 C14.057000160217285,-13.366000175476074 12.376999855041504,-15.991999626159668 10.378999710083008,-17.01099967956543 C4.885000228881836,-19.815000534057617 -5.216000080108643,-17.344999313354492 -7.718999862670898,-14.019000053405762 C-11.128999710083008,-9.48799991607666 -14.128000259399414,-3.118000030517578 -18.982999801635742,-1.3009999990463257 C-20.69499969482422,-0.6610000133514404 -22.363000869750977,0.03400000184774399 -24.034000396728516,0.6439999938011169 C-24.034000396728516,0.6439999938011169 -16.07900047302246,19.81599998474121 -16.07900047302246,19.81599998474121 C-12.524999618530273,17.777999877929688 -10.61299991607666,15.480999946594238 -6.703999996185303,15.109000205993652 C-2.0360000133514404,14.666000366210938 2.742000102996826,14.795999526977539 7.429999828338623,14.812999725341797 C11.26099967956543,14.826000213623047 12.890999794006348,14.138999938964844 12.960000038146973,8.79800033569336 C16.408000946044922,9.125 18.47800064086914,6.480000019073486 17.534000396728516,2.1440000534057617 C19.732999801635742,2.2139999866485596 21.67099952697754,-1.3639999628067017 19.874000549316406,-3.6710000038146973 C21.739999771118164,-3.3580000400543213 24.034000396728516,-4.125 23.687999725341797,-7.140999794006348z"></path></g></g><g transform="matrix(1,0,0,1,355,313)" opacity="0.8" style="display: block;"><g opacity="1" transform="matrix(1,0,0,1,0,0)"><path fill="rgb(216,207,185)" fill-opacity="0" d=" M11.5,-134.5 C11.5,-134.5 28.742000579833984,-86.61900329589844 51,-71.5 C77.5,-53.5 114.5,-50.5 140,-62"></path><path stroke-linecap="round" stroke-linejoin="miter" fill-opacity="0" stroke-miterlimit="4" stroke="rgb(196,13,100)" stroke-opacity="1" stroke-width="35" d=" M11.5,-134.5 C11.5,-134.5 28.742000579833984,-86.61900329589844 51,-71.5 C77.5,-53.5 114.5,-50.5 140,-62"></path></g></g><g transform="matrix(1,0,0,1,346,405)" opacity="1" style="display: block;"><g opacity="1" transform="matrix(1,0,0,1,0,0)"><path fill="rgb(216,207,185)" fill-opacity="0" d=" M14.5,-126.5 C14.5,-126.5 20,-42 20.5,-25 C21.667999267578125,14.696999549865723 -9,58 -21,88"></path><path stroke-linecap="round" stroke-linejoin="miter" fill-opacity="0" stroke-miterlimit="4" stroke="rgb(38,230,22)" stroke-opacity="1" stroke-width="50" d=" M14.5,-126.5 C14.5,-126.5 20,-42 20.5,-25 C21.667999267578125,14.696999549865723 -9,58 -21,88"></path></g></g><g transform="matrix(1,0,0,1,346,405)" opacity="1" style="display: block;"><g opacity="1" transform="matrix(1,0,0,1,0,0)"><path fill="rgb(216,207,185)" fill-opacity="0" d=" M15,-126 C15,-126 57,-54 59.5,-21 C64.34700012207031,42.974998474121094 59,73 59,101"></path><path stroke-linecap="round" stroke-linejoin="miter" fill-opacity="0" stroke-miterlimit="4" stroke="rgb(60,255,44)" stroke-opacity="1" stroke-width="50" d=" M15,-126 C15,-126 57,-54 59.5,-21 C64.34700012207031,42.974998474121094 59,73 59,101"></path></g></g><g transform="matrix(1,0,0,1,378.84100341796875,511.6929931640625)" opacity="1" style="display: block;"><g opacity="1" transform="matrix(1,0,0,1,40.48400115966797,10.25)"><path fill="rgb(0,0,0)" fill-opacity="1" d=" M-17.950000762939453,-4.288000106811523 C-12.392999649047852,-5.504000186920166 -7.425000190734863,-7.449999809265137 -1.8339999914169312,-8.289999961853027 C9.539999961853027,-10 18.148000717163086,-6.294000148773193 28.597000122070312,-3.315999984741211 C30.381000518798828,-2.806999921798706 32.20899963378906,-2.2130000591278076 34.0359992980957,-1.5290000438690186 C40.233001708984375,0.7950000166893005 38.53900146484375,10.00100040435791 31.920000076293945,10.00100040435791 C31.920000076293945,10.00100040435791 -34.03799819946289,10.00100040435791 -34.03799819946289,10.00100040435791 C-37.12699890136719,10.00100040435791 -39.7130012512207,7.638999938964844 -39.97600173950195,4.561999797821045 C-40.23400115966797,1.5449999570846558 -40.082000732421875,-1.3569999933242798 -37.387001037597656,-3.0460000038146973 C-33.56399917602539,-5.440999984741211 -22.788000106811523,-3.2300000190734863 -17.950000762939453,-4.288000106811523z"></path></g></g><g transform="matrix(0.9702957272529602,-0.24192190170288086,0.24192190170288086,0.9702957272529602,285.0892639160156,499.26287841796875)" opacity="1" style="display: block;"><g opacity="1" transform="matrix(1,0,0,1,35.814998626708984,26.138999938964844)"><path fill="rgb(0,0,0)" fill-opacity="1" d=" M-10.800999641418457,-16.483999252319336 C-5.460000038146973,-14.527999877929688 -0.22200000286102295,-13.503999710083008 4.946000099182129,-11.213000297546387 C15.461000442504883,-6.550000190734863 20.733999252319336,1.1959999799728394 27.95199966430664,9.317000389099121 C29.184999465942383,10.704000473022461 30.409000396728516,12.185999870300293 31.58300018310547,13.744000434875488 C35.564998626708984,19.030000686645508 29.194000244140625,25.888999938964844 23.610000610351562,22.33799934387207 C23.610000610351562,22.33799934387207 -32.04499816894531,-13.062999725341797 -32.04499816894531,-13.062999725341797 C-34.6510009765625,-14.720999717712402 -35.564998626708984,-18.100000381469727 -34.1349983215332,-20.83799934387207 C-32.73400115966797,-23.52199935913086 -31.048999786376953,-25.888999938964844 -27.868000030517578,-25.868000030517578 C-23.356000900268555,-25.836999893188477 -15.451000213623047,-18.187000274658203 -10.800999641418457,-16.483999252319336z"></path></g></g></g></g></svg>